<svg width="22" height="18" viewBox="0 0 22 18" fill="none" xmlns="http://www.w3.org/2000/svg">
<path d="M17.3434 11.8192L18.0456 12.5264C19.5492 11.3332 20.7251 9.77566 21.4607 8.00003C19.7578 3.89096 15.7171 1 11 1C9.66577 1 8.38491 1.23318 7.19594 1.6553L7.98026 2.43453C8.94183 2.15559 9.96126 2.00001 10.9999 2L17.3434 11.8192ZM17.3434 11.8192C18.5759 10.8577 19.577 9.62802 20.2687 8.22055L20.3769 8.00037L20.269 7.78004C19.4195 6.04589 18.1005 4.58487 16.4619 3.56308C14.8234 2.54131 12.931 1.99976 11 2L17.3434 11.8192ZM1.62302 7.99957L1.73133 7.77934C2.36132 6.49836 3.23326 5.38445 4.27429 4.49064L4.6264 4.18833L4.95407 4.51697L8.35407 7.92697L8.47839 8.05165L8.49715 8.22671C8.55957 8.809 8.81943 9.35237 9.23353 9.76647C9.64763 10.1806 10.191 10.4404 10.7733 10.5028L10.9494 10.5217L11.0743 10.6472L13.3543 12.9372L13.9953 13.581L13.1085 13.7781C12.4395 13.9267 11.7229 14 11.0001 14L1.62302 7.99957ZM1.62302 7.99957L1.73098 8.21996M1.62302 7.99957L1.73098 8.21996M1.73098 8.21996C2.58048 9.95411 3.8995 11.4151 5.53807 12.4369M1.73098 8.21996L5.53807 12.4369M5.53807 12.4369C7.17662 13.4587 9.06897 14.0002 11 14L5.53807 12.4369ZM18.2943 16.7214L17.7286 17.2915L15.0036 14.5664L14.7857 14.3486L14.4931 14.4452C13.3942 14.8084 12.2272 15 11 15C6.2827 15 2.24193 12.1088 0.539096 7.99955C1.20287 6.39045 2.22771 4.971 3.52001 3.83562L3.9207 3.48359L3.54355 3.10645L1.7085 1.27139L2.27862 0.705723L18.2943 16.7214ZM13.4997 7.96261L11.0374 5.50028C11.6869 5.50998 12.3077 5.77221 12.7678 6.23223C13.2278 6.69225 13.49 7.3131 13.4997 7.96261Z" fill="#C4C4C4" stroke="#7F8DA1"/>
</svg>
